<svg version="1.2" xmlns="http://www.w3.org/2000/svg" viewBox="0 0 340 176" width="340" height="176">
	<style>
		.s0 { fill: #2d3540 } 
		.s1 { fill: #ededee } 
		.s2 { fill: #e2e3e4 } 
		.s3 { fill: #e6e6e7 } 
		.s4 { fill: #ebecec } 
		.s5 { fill: #e9e9ea } 
		.s6 { fill: #ececed } 
		.s7 { fill: #ececec } 
		.s8 { fill: #323a45 } 
		.s9 { fill: #ebebec } 
		.s10 { fill: #e5e5e6 } 
	</style>
	
	<path class="s1" d="m31 76c4.16 1.76 6.43 4.33 9 8 1.4 4.21 1.22 8.21 1.25 12.63q0.03 1.29 0.06 2.62c0.05 7.29-1.19 13.54-5.25 19.69-2.54 2.54-4.57 3.95-8.21 4.21-5.89-0.57-8.79-1.8-12.85-6.15-4.93-7.98-5.32-18.82-4-28 3.58-9.73 9.62-14.38 20-13z" data-index="1" style="opacity: 1; visibility: visible;"></path>
	<path class="s2" d="m97 144q3.37 0.85 6.75 1.69 1.32 0.34 2.67 0.7c14.16 3.36 25.89 0.84 39.28-4.27 13.19-4.48 27.01-2.02 40.24 0.82 18.52 3.85 37.36 6.55 56.06 2.06 22.54-4.81 39.44-1.51 61 6-3.57 1.19-4.81 0.7-8.38-0.31-18.65-4.85-36.23-5.52-54.62 0.31-6.31 1.5-12.73 1.33-19.19 1.37q-1.01 0.01-2.06 0.02c-14.6 0.05-28.68-2.08-42.77-5.95-12.61-2.83-25.84-0.77-37.55 4.15-16.37 6.72-36.11 0.69-52.41-3.56-8.4-2.12-15.29-2.46-23.85-1.26-4.46 0.47-8.94 0.38-13.42 0.35q-1.51 0-3.07 0c-6.94-0.04-13.79-0.29-20.68-1.12q0-0.49 0-1 0.94-0.07 1.91-0.15c14-1.03 14-1.03 27.9-2.98 14.64-2.38 27.98-0.6 42.19 3.13z" data-index="2" style="opacity: 1;"></path>
	<path class="s3" d="m102.25 51.1c12.59 4.12 27.29 2.76 39.42-2.19 17.1-6.78 35.3-2.29 52.57 1.5 18.26 3.88 35.64 3.58 53.57-1.49 4.88-1.22 9.68-1.3 14.69-1.3 1.45 0.01 1.45 0.01 2.92 0.01 8.71 0.15 16.3 1.7 24.58 4.37q1.8 0.57 3.65 1.16 4.19 1.36 8.35 2.84c-3.32 1.1-5.46 0.87-8.82 0-1.41-0.34-1.41-0.34-2.84-0.69q-1.49-0.37-3.03-0.75c-16.52-3.77-29.19-3.13-45.53 1.25-20.75 5.41-41.43 1.55-61.88-3.17-14.48-3.21-26.26-2.21-39.94 2.95-17.19 6.35-36.51 2.07-53.42-2.93-6.59-1.72-12.86-1.79-19.63-1.76q-1.57 0-3.2 0.01-5.04 0.01-10.08 0.03-3.43 0.01-6.86 0.01-8.39 0.02-16.77 0.05-0.49-0.98-1-2 1.38-0.13 2.8-0.26 5.14-0.48 10.28-0.97 2.22-0.21 4.45-0.41 3.2-0.3 6.4-0.61c1.92-0.18 1.92-0.18 3.88-0.36 15.95-1.95 29.92-0.54 45.44 4.71z" data-index="3" style="opacity: 1;"></path>
	<path class="s4" d="m101 76c7 1 7 1 9.48 4.13q1.11 1.98 2.14 4 1.08 1.97 2.17 3.94 0.53 0.97 1.07 1.97c1.18 2.02 2.47 3.88 3.85 5.76 2.29 3.2 2.29 3.2 3.29 6.2 0-8.25 0-16.5 0-25 3.62-1.21 4.64-0.54 8 1q0.04 9.37 0.05 18.74 0.01 3.19 0.03 6.39 0.01 4.57 0.02 9.15 0.01 1.43 0.01 2.9c0 1.32 0 1.32 0 2.67q0.01 1.16 0.01 2.36c-0.12 1.79-0.12 1.79-1.12 2.79q-3 0.06-6 0-0.36-1.74-0.73-3.52c-1.14-4.57-3.14-8.16-5.65-12.1q-0.57-0.94-1.17-1.91c-2.4-3.89-4.91-7.67-7.45-11.47-0.33 9.57-0.66 19.14-1 29-2.31-0.33-4.62-0.66-7-1 0-15.18 0-30.36 0-46z" data-index="4" style="opacity: 1;"></path>
	<path class="s5" d="m202 75c5.71 0.71 5.71 0.71 7 2q0.12 2.12 0.1 4.25-0.01 1.28-0.01 2.59-0.01 1.34-0.03 2.72 0 1.35-0.01 2.73-0.02 3.36-0.05 6.71c4.29 0 8.58 0 13 0 0-6.6 0-13.2 0-20 4-1 4-1 6.25-0.06q0.86 0.52 1.75 1.06c0.72 11.81 1.17 23.54 0.63 35.38q-0.07 1.41-0.14 2.87c-0.35 6.61-0.35 6.61-1.49 7.75q-3.5 0.06-7 0c-0.1-6.77-0.03-13.3 1-20-4.95 0-9.9 0-15 0 0 6.6 0 13.2 0 20-2.31 0-4.62 0-7 0q-0.04-10.01-0.05-20.03-0.01-3.4-0.03-6.81-0.01-4.89-0.02-9.78-0.01-1.53-0.01-3.1 0-1.41 0-2.85-0.01-1.24-0.01-2.53c0.12-1.9 0.12-1.9 1.12-2.9z" data-index="5" style="opacity: 1;"></path>
	<path class="s6" d="m289 77c9.24 0 18.48 0 28 0-1 6-1 6-2 7q-2.02 0.12-4.04 0.1-1.2-0.01-2.45-0.01-1.27-0.01-2.57-0.03-1.28 0-2.59-0.01-3.18-0.02-6.35-0.05c0 3.3 0 6.6 0 10 5.61 0 11.22 0 17 0-1 6-1 6-2 7q-4.03 0.11-8.06 0.06-1.13 0-2.3-0.01-2.82-0.02-5.64-0.05c0 4.62 0 9.24 0 14 7.26 0 14.52 0 22 0-2 6-2 6-3 7q-2.76 0.14-5.53 0.13-1.67 0-3.4 0.01-1.76-0.01-3.57-0.02c-1.77 0.01-1.77 0.01-3.57 0.02-1.68-0.01-1.68-0.01-3.4-0.01q-1.54 0-3.14 0c-2.39-0.13-2.39-0.13-3.39-1.13q-0.13-2.07-0.11-4.15c0-1.32 0-1.32 0-2.67 0-1.44 0-1.44 0.01-2.9q0-1.46 0.01-2.96 0.01-4.69 0.03-9.38 0.01-3.18 0.01-6.35 0.02-7.79 0.05-15.59z" data-index="6" style="visibility: visible;"></path>
	<path class="s1" d="m65 75c4.87 1.59 7 3.73 9.25 8.15 1.06 2.6 1.55 5.06 1.75 7.85-1 1-1 1-4.06 1.06q-1.45-0.03-2.94-0.06c-1.32-2.64-2.64-5.28-4-8q-2.95 0-6 0 0 2.95 0 6c1.32 0.65 1.32 0.65 2.67 1.32 12.56 6.44 12.56 6.44 15.33 11.68 0.81 3.55 0.88 6.46 0 10-2.33 3.68-5.06 7.03-9 9-4.4 0.41-8.58 0.44-12.81-0.87-3.49-3.39-5.45-7.63-7.19-12.13q0-1.48 0-3c3.31 0.13 3.31 0.13 7 1q1.5 3 3 6c3.71 1.15 5.84 1.5 9.44-0.06 1.81-1.93 1.81-1.93 2.06-4.94-0.22-3.01-0.22-3.01-2.06-4.69-3.07-1.65-6.23-2.96-9.44-4.31-3.44-1.83-4.81-2.71-7-6-0.75-4.56-0.92-9.03 1.06-13.28 3.64-4.83 7.08-5.97 12.94-4.72z" data-index="7" style="opacity: 1;"></path>
	<path class="s7" d="m254 77c2.31 0 4.62 0 7 0q1.47 5.56 2.94 11.13 0.41 1.56 0.84 3.17 0.4 1.52 0.81 3.08c0.37 1.4 0.37 1.4 0.75 2.83 0.69 2.91 1.2 5.83 1.66 8.79 2.53-6.84 4.13-13.76 5.64-20.88 1.27-5.93 1.27-5.93 2.36-8.12 2.96 0.61 4.38 1.25 7 3-2.2 9.69-4.55 19.3-7.34 28.85-1.26 4.38-2.12 8.62-2.66 13.15-2.19 0.81-2.19 0.81-5 1-4.46-3.58-5.88-6.68-7.2-12.17-0.26-1.02-0.26-1.02-0.51-2.07q-0.53-2.15-1.03-4.31-0.76-3.27-1.57-6.53c-1.69-6.94-3.15-13.78-3.69-20.92z" data-index="8" style="opacity: 1;"></path>
	<path class="s5" d="m137 77c9.57 0 19.14 0 29 0-2 6-2 6-4 7-2.64 0-5.28 0-8 0 0 12.54 0 25.08 0 38-2.31 0-4.62 0-7 0 0-12.54 0-25.08 0-38-3.3 0-6.6 0-10 0 0-2.31 0-4.62 0-7z" data-index="9" style="opacity: 1;"></path>
	
	<path class="s6" d="m86 76c5.71 0.71 5.71 0.71 7 2q0.14 2.43 0.13 4.86c0.01 1.54 0.01 1.54 0.01 3.11q-0.01 1.64-0.02 3.34 0 1.67 0 3.39c-0.05 10.12-0.49 20.2-1.12 30.3-2.31 0-4.62 0-7 0q-0.04-9.8-0.05-19.6-0.01-3.33-0.03-6.67-0.01-4.79-0.02-9.57-0.01-1.49-0.01-3.03 0-1.38 0-2.79-0.01-1.22-0.01-2.47c0.12-1.87 0.12-1.87 1.12-2.87z" data-index="11" style="opacity: 1;"></path>
	<path class="s9" d="m240 76c2.31 0.33 4.62 0.66 7 1 0 15.18 0 30.36 0 46-2.31 0-4.62 0-7 0q-0.25-7.15-0.48-14.29-0.08-2.43-0.17-4.85c-0.33-9.37-0.45-18.52 0.65-27.86z" data-index="12" style="visibility: visible; opacity: 1;"></path>
	<path class="s10" d="m173 97c6.93 0 13.86 0 21 0q0.49 1.48 1 3-0.99 1.97-2 4c-6.93 0-13.86 0-21 0 0.33-2.31 0.66-4.62 1-7z" data-index="13" style="visibility: visible; opacity: 1;"></path>
</svg>