<?xml version="1.0" encoding="UTF-8"?>
<svg version="1.1" xmlns="http://www.w3.org/2000/svg" width="600" height="480">
<path d="M0 0 C198 0 396 0 600 0 C600 158.4 600 316.8 600 480 C402 480 204 480 0 480 C0 321.6 0 163.2 0 0 Z " fill="#2D3540" transform="translate(0,0)"/>
<path d="M0 0 C4.16088642 1.75681871 6.42889949 4.32699927 9 8 C10.40428466 12.21285399 10.22437686 16.21141495 10.25 20.625 C10.270625 21.48996094 10.29125 22.35492188 10.3125 23.24609375 C10.35626962 30.5446777 9.11878477 36.78764889 5.0625 42.9375 C2.51875517 45.48124483 0.49389805 46.89406905 -3.1484375 47.15234375 C-9.03580122 46.58426479 -11.93659158 45.35365187 -16 41 C-20.92596687 33.01653645 -21.32153952 22.18354038 -20 13 C-16.41631075 3.27112549 -10.37508524 -1.37956507 0 0 Z " fill="#EDEDEE" transform="translate(167,217)"/>
<path d="M0 0 C2.24971139 0.56365318 4.49967354 1.12630747 6.75 1.6875 C7.63171875 1.91824219 8.5134375 2.14898437 9.421875 2.38671875 C23.5807851 5.75482312 35.31270816 3.22581148 48.703125 -1.87890625 C61.88751501 -6.3622237 75.70768151 -3.89896017 88.9375 -1.0625 C107.46495784 2.78767839 126.29769823 5.48529039 145 1 C167.5414345 -3.81353549 184.43895344 -0.51228777 206 7 C202.4291158 8.19029473 201.19411789 7.69699581 197.625 6.6875 C178.97467299 1.83574429 161.38612798 1.16796705 143 7 C136.68594374 8.49621231 130.2686051 8.33190467 123.8125 8.375 C123.13158295 8.38022675 122.45066589 8.38545349 121.74911499 8.39083862 C107.1541804 8.44229013 93.06901463 6.31060787 78.97607422 2.44482422 C66.36917575 -0.39305186 53.1439247 1.67372122 41.43359375 6.58984375 C25.06071613 13.31408587 5.31638614 7.28233425 -10.97998047 3.03271484 C-19.38457833 0.90959986 -26.26931577 0.56983994 -34.83398438 1.76855469 C-39.29072958 2.24477138 -43.77294241 2.14557573 -48.25 2.125 C-49.26328369 2.12306641 -50.27656738 2.12113281 -51.32055664 2.11914062 C-58.2594177 2.07905413 -65.10512353 1.83035071 -72 1 C-72 0.67 -72 0.34 -72 0 C-71.37134033 -0.0501123 -70.74268066 -0.10022461 -70.0949707 -0.15185547 C-56.08619476 -1.1809757 -56.08619476 -1.1809757 -42.1875 -3.125 C-27.55454317 -5.50621607 -14.20919692 -3.73274985 0 0 Z " fill="#E2E3E4" transform="translate(233,285)"/>
<path d="M0 0 C12.59057967 4.11925082 27.28760609 2.75650484 39.41796875 -2.19140625 C56.51184443 -8.97583996 74.71415795 -4.48353471 91.99072266 -0.68701172 C110.24166592 3.19086901 127.62940335 2.89045241 145.55859375 -2.1796875 C150.43559054 -3.40601849 155.23695108 -3.48533969 160.24609375 -3.4765625 C161.69314697 -3.47414551 161.69314697 -3.47414551 163.16943359 -3.47167969 C171.88090804 -3.32429697 179.46176409 -1.77276248 187.74609375 0.8984375 C188.95007813 1.28 190.1540625 1.6615625 191.39453125 2.0546875 C194.19241635 2.96775024 196.97366181 3.9112837 199.74609375 4.8984375 C196.42172337 5.99891543 194.2897051 5.76893323 190.921875 4.90234375 C189.51591064 4.55792236 189.51591064 4.55792236 188.08154297 4.20654297 C187.08396973 3.96049316 186.08639648 3.71444336 185.05859375 3.4609375 C168.53315496 -0.30784145 155.87004927 0.33214095 139.5234375 4.70703125 C118.77959667 10.11462248 98.09307527 6.26300575 77.64331055 1.54174805 C63.16773006 -1.67247245 51.38630369 -0.66759724 37.70703125 4.48828125 C20.51497016 10.84274864 1.20079491 6.55590582 -15.71875 1.56274414 C-22.30204926 -0.16232879 -28.57654865 -0.23347606 -35.33984375 -0.19921875 C-36.39676422 -0.1978038 -37.45368469 -0.19638885 -38.54263306 -0.19493103 C-41.90475341 -0.1893519 -45.26680616 -0.17680319 -48.62890625 -0.1640625 C-50.91406154 -0.15904481 -53.19921787 -0.15448237 -55.484375 -0.15039062 C-61.07424165 -0.13938929 -66.66406912 -0.12267194 -72.25390625 -0.1015625 C-72.58390625 -0.7615625 -72.91390625 -1.4215625 -73.25390625 -2.1015625 C-72.33053467 -2.18720459 -71.40716309 -2.27284668 -70.45581055 -2.36108398 C-67.0282873 -2.68068116 -63.60109335 -3.00344857 -60.17407227 -3.32836914 C-58.69111886 -3.46831324 -57.20804572 -3.60699467 -55.72485352 -3.74438477 C-53.59228259 -3.94214913 -51.46018424 -4.1444587 -49.328125 -4.34765625 C-47.40359497 -4.52832642 -47.40359497 -4.52832642 -45.44018555 -4.71264648 C-29.49728386 -6.65863088 -15.52705023 -5.25645638 0 0 Z " fill="#E6E6E7" transform="translate(238.25390625,192.1015625)"/>
<path d="M0 0 C7 1 7 1 9.4765625 4.1328125 C10.21719078 5.45007281 10.93281632 6.78165093 11.625 8.125 C12.34325438 9.4417997 13.0646083 10.75691351 13.7890625 12.0703125 C14.14258789 12.72161133 14.49611328 13.37291016 14.86035156 14.04394531 C16.03613026 16.06201278 17.33089747 17.92137372 18.7109375 19.8046875 C21 23 21 23 22 26 C22 17.75 22 9.5 22 1 C25.62326739 -0.2077558 26.64146369 0.45688872 30 2 C30.02527124 8.24795675 30.04283344 14.49590041 30.05493164 20.74389648 C30.05997298 22.87118014 30.06680591 24.99846031 30.07543945 27.12573242 C30.08751379 30.17627826 30.09323014 33.22677845 30.09765625 36.27734375 C30.10281754 37.23462875 30.10797882 38.19191376 30.11329651 39.1782074 C30.11340981 40.49946373 30.11340981 40.49946373 30.11352539 41.84741211 C30.115746 42.62684677 30.11796661 43.40628143 30.12025452 44.20933533 C30 46 30 46 29 47 C27.00041636 47.04080783 24.99954746 47.04254356 23 47 C22.76023437 45.83726562 22.52046875 44.67453125 22.2734375 43.4765625 C21.12979187 38.9120296 19.13112836 35.32256166 16.625 31.375 C16.23828125 30.7459375 15.8515625 30.116875 15.453125 29.46875 C13.05146781 25.58419038 10.53572433 21.8035865 8 18 C7.67 27.57 7.34 37.14 7 47 C4.69 46.67 2.38 46.34 0 46 C0 30.82 0 15.64 0 0 Z " fill="#EBECEC" transform="translate(237,217)"/>
<path d="M0 0 C5.71428571 0.71428571 5.71428571 0.71428571 7 2 C7.08651611 3.41570123 7.10704904 4.835595 7.09765625 6.25390625 C7.09443359 7.10791016 7.09121094 7.96191406 7.08789062 8.84179688 C7.07951172 9.73962891 7.07113281 10.63746094 7.0625 11.5625 C7.05798828 12.46419922 7.05347656 13.36589844 7.04882812 14.29492188 C7.03700244 16.52997589 7.01906638 18.76499602 7 21 C11.29 21 15.58 21 20 21 C20 14.4 20 7.8 20 1 C24 0 24 0 26.25 0.9375 C26.8275 1.288125 27.405 1.63875 28 2 C28.7218448 13.81468425 29.17461182 25.54310618 28.625 37.375 C28.58189697 38.3252002 28.53879395 39.27540039 28.49438477 40.25439453 C28.13743366 46.86256634 28.13743366 46.86256634 27 48 C24.66702567 48.04092937 22.33294775 48.04241723 20 48 C19.89847201 41.2314676 19.96973056 34.69675136 21 28 C16.05 28 11.1 28 6 28 C6 34.6 6 41.2 6 48 C3.69 48 1.38 48 -1 48 C-1.02526945 41.3247966 -1.04283268 34.64960543 -1.05493164 27.97436523 C-1.05997325 25.70157409 -1.06680637 23.4287862 -1.07543945 21.15600586 C-1.08751261 17.89696449 -1.09322987 14.63796583 -1.09765625 11.37890625 C-1.10281754 10.35599991 -1.10797882 9.33309357 -1.11329651 8.27919006 C-1.11337204 7.33829025 -1.11344757 6.39739044 -1.11352539 5.42797852 C-1.115746 4.59524918 -1.11796661 3.76251984 -1.12025452 2.90455627 C-1 1 -1 1 0 0 Z " fill="#E9E9EA" transform="translate(338,216)"/>
<path d="M0 0 C9.24 0 18.48 0 28 0 C27 6 27 6 26 7 C24.65732587 7.08631874 23.31025678 7.10706473 21.96484375 7.09765625 C21.15595703 7.09443359 20.34707031 7.09121094 19.51367188 7.08789062 C18.66353516 7.07951172 17.81339844 7.07113281 16.9375 7.0625 C16.08349609 7.05798828 15.22949219 7.05347656 14.34960938 7.04882812 C12.23304337 7.03700373 10.11651315 7.01906769 8 7 C8 10.3 8 13.6 8 17 C13.61 17 19.22 17 25 17 C24 23 24 23 23 24 C20.30345146 24.07319621 17.63308542 24.09242537 14.9375 24.0625 C14.17888672 24.05798828 13.42027344 24.05347656 12.63867188 24.04882812 C10.75908129 24.0370068 8.87953101 24.01907078 7 24 C7 28.62 7 33.24 7 38 C14.26 38 21.52 38 29 38 C27 44 27 44 26 45 C24.15840977 45.09959621 22.31303033 45.13080411 20.46875 45.1328125 C19.34855469 45.13410156 18.22835938 45.13539063 17.07421875 45.13671875 C15.89472656 45.13285156 14.71523438 45.12898438 13.5 45.125 C11.73076172 45.13080078 11.73076172 45.13080078 9.92578125 45.13671875 C8.24548828 45.13478516 8.24548828 45.13478516 6.53125 45.1328125 C5.49548828 45.13168457 4.45972656 45.13055664 3.39257812 45.12939453 C1 45 1 45 0 44 C-0.0927833 42.61839885 -0.11747043 41.23211962 -0.11352539 39.84741211 C-0.11341209 38.52615578 -0.11341209 38.52615578 -0.11329651 37.1782074 C-0.10555458 35.74227989 -0.10555458 35.74227989 -0.09765625 34.27734375 C-0.0962413 33.30213272 -0.09482635 32.32692169 -0.09336853 31.32215881 C-0.08775133 28.19390857 -0.07519593 25.06572877 -0.0625 21.9375 C-0.05748722 19.82226666 -0.05292393 17.70703219 -0.04882812 15.59179688 C-0.03862531 10.39448199 -0.01905331 5.19732025 0 0 Z " fill="#ECECED" transform="translate(425,218)"/>
<path d="M0 0 C4.86725006 1.59121637 6.99592224 3.72871614 9.25 8.15234375 C10.30545635 10.75250444 10.80054131 13.20757839 11 16 C10 17 10 17 6.9375 17.0625 C5.968125 17.041875 4.99875 17.02125 4 17 C2.68 14.36 1.36 11.72 0 9 C-1.98 9 -3.96 9 -6 9 C-6 10.98 -6 12.96 -6 15 C-4.67935547 15.65355469 -4.67935547 15.65355469 -3.33203125 16.3203125 C9.22555785 22.75938704 9.22555785 22.75938704 12 28 C12.80717253 31.54558006 12.8801177 34.46323073 12 38 C9.67377513 41.68218497 6.94096549 45.02951726 3 47 C-1.40055438 47.40500677 -5.57658251 47.442841 -9.8125 46.125 C-13.29613958 42.74089298 -15.25923072 38.50377753 -17 34 C-17 33.01 -17 32.02 -17 31 C-13.6875 31.125 -13.6875 31.125 -10 32 C-9 34 -8 36 -7 38 C-3.28846818 39.14720074 -1.15556412 39.50370744 2.4375 37.9375 C4.25000652 36.01462026 4.25000652 36.01462026 4.5 33 C4.28137578 29.99385683 4.28137578 29.99385683 2.4375 28.3125 C-0.62712287 26.66231845 -3.79287949 25.35036653 -7 24 C-10.43677148 22.16705521 -11.80819627 21.28770559 -14 18 C-14.75485501 13.44183707 -14.91816501 8.96797868 -12.9375 4.72265625 C-9.30365374 -0.10601446 -5.85566632 -1.25311259 0 0 Z " fill="#EDEDEE" transform="translate(201,216)"/>
<path d="M0 0 C2.31 0 4.62 0 7 0 C7.98358241 3.70717641 8.96107671 7.41593212 9.9375 11.125 C10.21529297 12.17171875 10.49308594 13.2184375 10.77929688 14.296875 C11.04677734 15.31523437 11.31425781 16.33359375 11.58984375 17.3828125 C11.95903931 18.78104248 11.95903931 18.78104248 12.33569336 20.20751953 C13.02953503 23.1241535 13.53950868 26.03833384 14 29 C16.53355582 22.15939928 18.13421818 15.24389727 19.64160156 8.12158203 C20.90598468 2.18803064 20.90598468 2.18803064 22 0 C24.96175123 0.61277612 26.38058783 1.25372522 29 3 C26.80392808 12.69216097 24.45291334 22.30460928 21.66333008 31.84521484 C20.40353364 36.22864365 19.54106333 40.46933784 19 45 C16.8125 45.8125 16.8125 45.8125 14 46 C9.54197457 42.41676987 8.11886276 39.32021686 6.796875 33.828125 C6.54469208 32.80534454 6.54469208 32.80534454 6.28741455 31.76190186 C5.93656128 30.32504093 5.59414126 28.8860971 5.25976562 27.4453125 C4.75372913 25.26605953 4.22315079 23.09401773 3.6875 20.921875 C2.00103253 13.97879242 0.54438537 7.14105514 0 0 Z " fill="#ECECEC" transform="translate(390,218)"/>
<path d="M0 0 C9.57 0 19.14 0 29 0 C27 6 27 6 25 7 C22.36 7 19.72 7 17 7 C17 19.54 17 32.08 17 45 C14.69 45 12.38 45 10 45 C10 32.46 10 19.92 10 7 C6.7 7 3.4 7 0 7 C0 4.69 0 2.38 0 0 Z " fill="#E9E9EA" transform="translate(273,218)"/>
<path d="M0 0 C2.5048111 1.87860833 2.98700625 2.96101874 4 6 C4.51811856 14.86779842 4.55128173 22.71367597 1 31 C-2.1875 31.8125 -2.1875 31.8125 -6 32 C-9.51089921 29.32866365 -11.27129915 27.30595959 -12 23 C-12.16900499 20.54527175 -12.26585145 18.08509703 -12.3125 15.625 C-12.34988281 14.33851563 -12.38726562 13.05203125 -12.42578125 11.7265625 C-11.93144851 7.40001723 -10.73640049 5.342846 -8 2 C-4.76746204 -0.15502531 -3.74849077 -0.46856135 0 0 Z " fill="#323A45" transform="translate(166,224)"/>
<path d="M0 0 C5.71428571 0.71428571 5.71428571 0.71428571 7 2 C7.10015869 3.6186022 7.13081305 5.24158434 7.1328125 6.86328125 C7.13571289 8.39867554 7.13571289 8.39867554 7.13867188 9.96508789 C7.13416016 11.06973389 7.12964844 12.17437988 7.125 13.3125 C7.12306641 14.43068115 7.12113281 15.5488623 7.11914062 16.70092773 C7.067421 26.82145176 6.63190185 36.90085429 6 47 C3.69 47 1.38 47 -1 47 C-1.02527002 40.46721214 -1.04283292 33.93443679 -1.05493164 27.40161133 C-1.05997317 25.17732268 -1.06680623 22.95303737 -1.07543945 20.72875977 C-1.08751298 17.53921691 -1.09322996 14.34971771 -1.09765625 11.16015625 C-1.10281754 10.15912369 -1.10797882 9.15809113 -1.11329651 8.12672424 C-1.11337204 7.20584518 -1.11344757 6.28496613 -1.11352539 5.33618164 C-1.115746 4.52121719 -1.11796661 3.70625275 -1.12025452 2.86659241 C-1 1 -1 1 0 0 Z " fill="#ECECED" transform="translate(222,217)"/>
<path d="M0 0 C2.31 0.33 4.62 0.66 7 1 C7 16.18 7 31.36 7 47 C4.69 47 2.38 47 0 47 C-0.16972257 42.23545258 -0.33001759 37.47070709 -0.48217773 32.70556641 C-0.53502588 31.08992313 -0.5902977 29.474357 -0.64819336 27.85888672 C-0.98218067 18.4898165 -1.10216858 9.33682745 0 0 Z " fill="#EBEBEC" transform="translate(376,217)"/>
<path d="M0 0 C6.93 0 13.86 0 21 0 C21.33 0.99 21.66 1.98 22 3 C21.34 4.32 20.68 5.64 20 7 C13.07 7 6.14 7 -1 7 C-0.67 4.69 -0.34 2.38 0 0 Z " fill="#E5E5E6" transform="translate(309,238)"/>
</svg>
